<svg id="visual" viewBox="0 0 1920 1080" width="1920" height="1080" xmlns="http://www.w3.org/2000/svg" xmlns:xlink="http://www.w3.org/1999/xlink" version="1.1"><path d="M0 792L45.7 804.3C91.3 816.7 182.7 841.3 274.2 856.7C365.7 872 457.3 878 548.8 860.8C640.3 843.7 731.7 803.3 823 780.8C914.3 758.3 1005.7 753.7 1097 772.3C1188.3 791 1279.7 833 1371.2 856.3C1462.7 879.7 1554.3 884.3 1645.8 860.3C1737.3 836.3 1828.7 783.7 1874.3 757.3L1920 731L1920 1081L1874.3 1081C1828.7 1081 1737.3 1081 1645.8 1081C1554.3 1081 1462.7 1081 1371.2 1081C1279.7 1081 1188.3 1081 1097 1081C1005.7 1081 914.3 1081 823 1081C731.7 1081 640.3 1081 548.8 1081C457.3 1081 365.7 1081 274.2 1081C182.7 1081 91.3 1081 45.7 1081L0 1081Z" fill="#dcd9f1"></path><path d="M0 924L45.7 918.3C91.3 912.7 182.7 901.3 274.2 899.2C365.7 897 457.3 904 548.8 910.5C640.3 917 731.7 923 823 924.7C914.3 926.3 1005.7 923.7 1097 911.2C1188.3 898.7 1279.7 876.3 1371.2 872.7C1462.7 869 1554.3 884 1645.8 897.7C1737.3 911.3 1828.7 923.7 1874.3 929.8L1920 936L1920 1081L1874.3 1081C1828.7 1081 1737.3 1081 1645.8 1081C1554.3 1081 1462.7 1081 1371.2 1081C1279.7 1081 1188.3 1081 1097 1081C1005.7 1081 914.3 1081 823 1081C731.7 1081 640.3 1081 548.8 1081C457.3 1081 365.7 1081 274.2 1081C182.7 1081 91.3 1081 45.7 1081L0 1081Z" fill="#9492d3"></path><path d="M0 965L45.7 971.7C91.3 978.3 182.7 991.7 274.2 989.3C365.7 987 457.3 969 548.8 970.8C640.3 972.7 731.7 994.3 823 997.2C914.3 1000 1005.7 984 1097 980.7C1188.3 977.3 1279.7 986.7 1371.2 996C1462.7 1005.3 1554.3 1014.7 1645.8 1019C1737.3 1023.3 1828.7 1022.7 1874.3 1022.3L1920 1022L1920 1081L1874.3 1081C1828.7 1081 1737.3 1081 1645.8 1081C1554.3 1081 1462.7 1081 1371.2 1081C1279.7 1081 1188.3 1081 1097 1081C1005.7 1081 914.3 1081 823 1081C731.7 1081 640.3 1081 548.8 1081C457.3 1081 365.7 1081 274.2 1081C182.7 1081 91.3 1081 45.7 1081L0 1081Z" fill="#3f51b5"></path></svg>